<svg xmlns="http://www.w3.org/2000/svg" viewBox="0 0 100 100" width="100" height="100">
  <!-- Fundo -->
  <rect width="100" height="100" fill="#2563eb" rx="20"/>
  
  <!-- Caixa de entrega -->
  <rect x="15" y="25" width="25" height="20" fill="#f59e0b" rx="3"/>
  
  <!-- Moto -->
  <g transform="translate(10, 35)">
    <!-- Corpo da moto -->
    <ellipse cx="45" cy="20" rx="25" ry="12" fill="#ef4444"/>
    
    <!-- Assento -->
    <ellipse cx="35" cy="15" rx="15" ry="6" fill="#1f2937"/>
    
    <!-- Guidão -->
    <rect x="50" y="10" width="8" height="3" fill="#1f2937" rx="1"/>
    
    <!-- Rodas -->
    <circle cx="20" cy="32" r="12" fill="#1f2937"/>
    <circle cx="20" cy="32" r="6" fill="#3b82f6"/>
    
    <circle cx="65" cy="32" r="12" fill="#1f2937"/>
    <circle cx="65" cy="32" r="6" fill="#3b82f6"/>
  </g>
  
  <!-- Motoboy -->
  <g transform="translate(35, 15)">
    <!-- Cabeça -->
    <circle cx="15" cy="8" r="6" fill="#fbbf24"/>
    
    <!-- Capacete -->
    <path d="M 9 8 Q 9 2 15 2 Q 21 2 21 8 Q 21 5 15 5 Q 9 5 9 8" fill="#1f2937"/>
    
    <!-- Corpo -->
    <ellipse cx="15" cy="20" rx="8" ry="12" fill="#3b82f6"/>
    
    <!-- Braços -->
    <ellipse cx="8" cy="18" rx="4" ry="8" fill="#3b82f6" transform="rotate(-20 8 18)"/>
    <ellipse cx="22" cy="18" rx="4" ry="8" fill="#3b82f6" transform="rotate(20 22 18)"/>
  </g>
</svg>